<?xml version="1.0" encoding="UTF-8" standalone="no"?>
<!-- Created with Inkscape (http://www.inkscape.org/) -->

<svg
   xmlns:dc="http://purl.org/dc/elements/1.1/"
   xmlns:cc="http://creativecommons.org/ns#"
   xmlns:rdf="http://www.w3.org/1999/02/22-rdf-syntax-ns#"
   xmlns:svg="http://www.w3.org/2000/svg"
   xmlns="http://www.w3.org/2000/svg"
   xmlns:sodipodi="http://sodipodi.sourceforge.net/DTD/sodipodi-0.dtd"
   xmlns:inkscape="http://www.inkscape.org/namespaces/inkscape"
   id="svg3042"
   version="1.1"
   inkscape:version="0.48.2 r9819"
   width="1075.5513"
   height="644.85786"
   xml:space="preserve"
   sodipodi:docname="cos.svg"><metadata
     id="metadata3048"><rdf:RDF><cc:Work
         rdf:about=""><dc:format>image/svg+xml</dc:format><dc:type
           rdf:resource="http://purl.org/dc/dcmitype/StillImage" /><dc:title></dc:title></cc:Work></rdf:RDF></metadata><defs
     id="defs3046"><clipPath
       clipPathUnits="userSpaceOnUse"
       id="clipPath3094"><path
         d="M 0,0 861,0 861,516 0,516 0,0 z"
         id="path3096" /></clipPath></defs><sodipodi:namedview
     pagecolor="#ffffff"
     bordercolor="#666666"
     borderopacity="1"
     objecttolerance="10"
     gridtolerance="10"
     guidetolerance="10"
     inkscape:pageopacity="0"
     inkscape:pageshadow="2"
     inkscape:window-width="1680"
     inkscape:window-height="1002"
     id="namedview3044"
     showgrid="false"
     inkscape:zoom="0.50863923"
     inkscape:cx="384.1716"
     inkscape:cy="748.13035"
     inkscape:window-x="0"
     inkscape:window-y="0"
     inkscape:window-maximized="1"
     inkscape:current-layer="g3050" /><g
     id="g3050"
     inkscape:groupmode="layer"
     inkscape:label="cos"
     transform="matrix(1.25,0,0,-1.25,0,644.85786)"><path
       style="fill:#505050;fill-opacity:1;fill-rule:nonzero;stroke:none"
       d="M 188.375 0 C 84.07375 0 0 79.69625 0 189.59375 C 3.7895613e-14 299.49625 84.07375 379.1875 188.375 379.1875 C 264.1375 379.1875 328.47875 337.49625 359.09375 272.90625 L 301.5 257.3125 C 280.74375 295.8525 237.15 321.875 188.375 321.875 C 115.20625 321.875 59.15625 269.27625 59.15625 189.59375 C 59.15625 110.95125 113.13125 56.78125 188.375 56.78125 C 231.96375 56.78125 272.9525 77.61125 294.75 111.46875 L 353.375 95.84375 C 320.685 38.03125 259.46375 0 188.375 0 z M 540.0625 0 C 513.91 0 492.71875 21.25875 492.71875 47.5 C 492.71875 59.385511 497.09761 70.229934 504.28125 78.5625 C 508.65974 62.871348 523.03896 51.3125 540.0625 51.3125 C 557.08626 51.317084 571.47356 62.885726 575.84375 78.59375 C 583.03686 70.258857 587.40625 59.393977 587.40625 47.5 C 587.40625 21.25875 566.21 0 540.0625 0 z M 904.8125 1.25 C 812.7425 1.25 745.59375 46.57125 745.59375 103.34375 C 745.59375 166.89375 816.59 187.20125 869.03125 201.78125 C 932.33125 218.96875 1001.375 228.34375 1001.375 273.65625 C 1001.375 304.90125 968.1325 328.875 911.21875 328.875 C 846.64375 328.875 807.61875 295.0175 799.3125 257 L 731.53125 272.09375 C 750.725 335.64375 813.3875 380.4375 908.65625 380.4375 C 1008.4075 380.4375 1075.5625 334.61625 1075.5625 271.59375 C 1075.5625 203.36125 995.6375 177.83125 931.6875 161.15625 C 874.14375 146.57125 817.84375 135.12125 817.84375 100.21875 C 817.84375 71.05375 851.75625 51.25 901.625 51.25 C 949.59875 51.25 991.8026 74.1875 1002.0312 114.8125 L 1069.8125 99.6875 C 1053.1713 41.3525 987.9425 1.25 904.8125 1.25 z M 438.25 44.625 C 426.8985 44.625 415.54872 48.953225 406.875 57.65625 C 389.52869 75.057675 389.53234 103.18307 406.875 120.59375 C 424.22671 138.00057 452.25235 137.99964 469.59375 120.59375 C 486.94591 103.18296 486.9451 75.058025 469.59375 57.65625 C 460.92337 48.951863 449.6015 44.625 438.25 44.625 z M 638.40625 44.625 C 627.05175 44.625 615.73598 48.951125 607.0625 57.65625 C 589.72502 75.062913 589.72468 103.18322 607.0625 120.59375 C 624.42024 137.99254 652.41287 137.99067 669.75 120.59375 C 687.0882 103.18284 687.09677 75.062838 669.75 57.65625 C 661.08226 48.952162 649.76075 44.625 638.40625 44.625 z M 540.0625 58.3125 C 523.37278 58.3125 509.90625 71.826113 509.90625 88.59375 C 509.90625 105.37103 523.37167 118.875 540.0625 118.875 C 556.7368 118.875 570.21875 105.36914 570.21875 88.59375 C 570.21875 71.828 556.73682 58.3175 540.0625 58.3125 z M 588.1875 92 C 587.31574 92.709296 586.46932 93.465862 585.65625 94.28125 C 572.5175 107.47 572.5075 128.86875 585.65625 142.0625 C 598.81125 155.25125 620.10625 155.25125 633.25 142.0625 C 634.05704 141.25247 634.82526 140.40267 635.53125 139.53125 C 623.62093 138.85077 611.90149 133.95424 602.8125 124.84375 C 593.72498 115.71812 588.85883 103.96223 588.1875 92 z M 488.5 92.0625 C 487.80943 103.99562 482.91658 115.74026 473.84375 124.84375 C 464.75316 133.96815 453.02129 138.85746 441.09375 139.53125 C 441.80516 140.4035 442.56557 141.2503 443.375 142.0625 C 456.515 155.25125 477.82875 155.25125 490.96875 142.0625 C 504.1175 128.87375 504.1175 107.485 490.96875 94.28125 C 490.1783 93.487638 489.34847 92.753697 488.5 92.0625 z M 396.78125 142.0625 C 370.63375 142.0625 349.4375 163.3525 349.4375 189.59375 C 349.4375 215.83875 370.63375 237.09375 396.78125 237.09375 C 408.63239 237.09375 419.44903 232.71995 427.75 225.5 C 412.07364 221.12083 400.53125 206.68429 400.53125 189.59375 C 400.53125 172.4948 412.07334 158.06077 427.75 153.6875 C 419.44929 146.45601 408.63471 142.0625 396.78125 142.0625 z M 679.875 142.0625 C 668.01683 142.0625 657.18121 146.45117 648.875 153.6875 C 664.54995 158.06406 676.08439 172.50791 676.09375 189.59375 C 676.0846 206.67929 664.56581 221.11625 648.90625 225.5 C 657.20798 232.71995 668.02613 237.09375 679.875 237.09375 C 706.0225 237.09375 727.21875 215.83875 727.21875 189.59375 C 727.21875 163.3525 706.0225 142.0625 679.875 142.0625 z M 437.6875 159.3125 C 420.99589 159.3125 407.53125 172.8096 407.53125 189.59375 C 407.53125 206.36551 420.99502 219.86625 437.6875 219.875 C 454.36667 219.875 467.84375 206.36426 467.84375 189.59375 C 467.84375 172.81085 454.36809 159.3125 437.6875 159.3125 z M 638.9375 159.3125 C 622.25214 159.31699 608.78125 172.82674 608.78125 189.59375 C 608.78125 206.3759 622.25383 219.88375 638.9375 219.875 C 655.62896 219.875 669.085 206.37878 669.09375 189.59375 C 669.08476 172.82385 655.62722 159.3125 638.9375 159.3125 z M 467.15625 227.21875 C 458.54359 227.21938 449.945 230.52812 443.375 237.125 C 442.5739 237.92915 441.82516 238.75848 441.125 239.625 C 453.02928 240.30616 464.76104 245.19601 473.84375 254.3125 C 482.92469 263.42475 487.81615 275.17563 488.5 287.125 C 489.34914 286.42637 490.17732 285.66944 490.96875 284.875 C 504.10875 271.69625 504.10875 250.32375 490.96875 237.125 C 484.39687 230.52562 475.76891 227.21812 467.15625 227.21875 z M 609.46875 227.21875 C 600.85672 227.21875 592.23375 230.52812 585.65625 237.125 C 572.5125 250.32375 572.5125 271.69625 585.65625 284.875 C 586.46955 285.69069 587.31574 286.4398 588.1875 287.15625 C 588.86285 275.19551 593.73043 263.43081 602.8125 254.3125 C 611.8929 245.20818 623.60595 240.3135 635.5 239.625 C 634.79997 238.75851 634.05148 237.92915 633.25 237.125 C 626.67813 230.52812 618.08078 227.21875 609.46875 227.21875 z M 438.25 245.53125 C 426.89881 245.53125 415.54888 249.86108 406.875 258.5625 C 389.52832 275.97367 389.52832 304.12007 406.875 321.53125 C 424.22651 338.93201 452.25254 338.93109 469.59375 321.53125 C 486.94528 304.11992 486.94527 275.97382 469.59375 258.5625 C 460.92323 249.85973 449.60119 245.53125 438.25 245.53125 z M 638.40625 245.53125 C 627.0538 245.53125 615.74196 249.86018 607.0625 258.5625 C 589.72674 275.96744 589.73566 304.12585 607.0625 321.53125 C 624.42052 338.93853 652.4126 338.93668 669.75 321.53125 C 687.09582 304.12562 687.09582 275.96813 669.75 258.5625 C 661.08199 249.86225 649.7587 245.53125 638.40625 245.53125 z M 538.3125 260.3125 C 521.61397 260.3125 508.15625 273.79975 508.15625 290.5625 C 508.15625 307.34039 521.62007 320.875 538.3125 320.875 C 554.98315 320.875 568.46875 307.32841 568.46875 290.5625 C 568.46875 273.80209 554.99037 260.3125 538.3125 260.3125 z M 571.03125 308.1875 C 564.7499 319.8838 552.44164 327.875 538.3125 327.875 C 525.19046 327.875 513.64348 320.99378 507.03125 310.65625 C 501.32197 317.86553 497.875 326.95212 497.875 336.875 C 497.875 360.23875 516.77625 379.1875 540.0625 379.1875 C 563.33875 379.1875 582.1875 360.23875 582.1875 336.875 C 582.1875 325.79393 577.96693 315.72875 571.03125 308.1875 z M 286.21875 441.53125 C 271.23359 441.53125 259.15625 452.96104 259.15625 468.75 C 259.15625 484.53896 271.23359 496 286.21875 496 C 297.10349 496 306.35137 489.99757 310.75 480.71875 L 302.46875 478.5 C 299.48663 484.11219 293.22674 487.75 286.21875 487.75 C 275.70677 487.75 267.71875 480.19887 267.71875 468.75 C 267.71875 457.45079 275.40856 449.6875 286.21875 449.6875 C 292.4812 449.6875 298.29422 452.66735 301.5 457.53125 L 309.90625 455.28125 C 305.20941 446.97521 296.43252 441.53125 286.21875 441.53125 z M 732.46875 441.53125 C 717.48359 441.53125 705.40625 452.96104 705.40625 468.75 C 705.40625 484.53896 717.48359 496 732.46875 496 C 747.45391 496 759.625 484.53896 759.625 468.75 C 759.625 452.96104 747.45391 441.53125 732.46875 441.53125 z M 328.78125 442.5625 L 328.78125 494.9375 L 365.09375 494.9375 L 365.09375 487.15625 L 337.0625 487.15625 L 337.0625 471.53125 L 359.03125 471.53125 L 359.03125 463.96875 L 337.0625 463.96875 L 337.0625 450.34375 L 364.625 450.34375 L 364.625 442.5625 L 328.78125 442.5625 z M 387.375 442.5625 L 387.375 494.9375 L 395.65625 494.9375 L 395.65625 459.25 L 395.5 457.21875 L 396.53125 458.96875 L 423.84375 494.9375 L 431.59375 494.9375 L 431.59375 442.5625 L 423.3125 442.5625 L 423.3125 477.96875 L 423.46875 480.125 L 422.5 478.25 L 395.125 442.5625 L 387.375 442.5625 z M 449.25 442.5625 L 449.25 450.34375 L 466.03125 450.34375 L 466.03125 494.9375 L 474.3125 494.9375 L 474.3125 450.34375 L 491.21875 450.34375 L 491.21875 442.5625 L 449.25 442.5625 z M 509.5625 442.5625 L 509.5625 494.9375 L 545.875 494.9375 L 545.875 487.15625 L 517.84375 487.15625 L 517.84375 471.53125 L 539.84375 471.53125 L 539.84375 463.96875 L 517.84375 463.96875 L 517.84375 450.34375 L 545.4375 450.34375 L 545.4375 442.5625 L 509.5625 442.5625 z M 567.65625 442.5625 L 567.65625 494.9375 L 575.90625 494.9375 L 575.90625 476.25 L 584.71875 476.25 L 586.125 476.25 L 597.6875 494.9375 L 606.9375 494.9375 L 594.34375 474.65625 C 600.97897 472.11206 604.78125 466.73951 604.78125 459.40625 C 604.78125 449.07982 597.24366 442.5625 584.71875 442.5625 L 567.65625 442.5625 z M 655.46875 442.5625 L 655.46875 494.9375 L 663.75 494.9375 L 663.75 473.03125 L 685 473.03125 L 685 465.53125 L 663.75 465.53125 L 663.75 450.34375 L 690.59375 450.34375 L 690.59375 442.5625 L 655.46875 442.5625 z M 778.84375 442.5625 L 778.84375 494.9375 L 787.125 494.9375 L 787.125 476.25 L 795.9375 476.25 L 797.34375 476.25 L 808.90625 494.9375 L 818.15625 494.9375 L 805.53125 474.65625 C 812.16647 472.11206 815.96875 466.73951 815.96875 459.40625 C 815.96875 449.07982 808.46241 442.5625 795.9375 442.5625 L 778.84375 442.5625 z M 732.46875 449.6875 C 743.12983 449.6875 751.03125 457.30113 751.03125 468.75 C 751.03125 480.04921 743.12983 487.84375 732.46875 487.84375 C 721.73311 487.84375 714 480.04921 714 468.75 C 714 457.30113 721.73311 449.6875 732.46875 449.6875 z M 575.90625 450.34375 L 585.6875 450.34375 C 592.54638 450.34375 596.1875 454.01855 596.1875 459.40625 C 596.1875 464.56946 592.77004 468.46875 585.6875 468.46875 L 575.90625 468.46875 L 575.90625 450.34375 z M 787.125 450.34375 L 796.90625 450.34375 C 803.76513 450.34375 807.40625 454.01855 807.40625 459.40625 C 807.40625 464.56946 803.98879 468.46875 796.90625 468.46875 L 787.125 468.46875 L 787.125 450.34375 z M 3.1875 466.125 L 3.1875 469.375 L 167.0625 469.375 L 167.0625 466.125 L 3.1875 466.125 z M 910.71875 466.125 L 910.71875 469.375 L 1074.5938 469.375 L 1074.5938 466.125 L 910.71875 466.125 z M 56.5 538.9375 C 27.362187 538.9375 3.875 561.20549 3.875 591.90625 C 3.875 622.60701 27.362187 644.84375 56.5 644.84375 C 85.637813 644.84375 109.28125 622.60701 109.28125 591.90625 C 109.28125 561.20549 85.637813 538.9375 56.5 538.9375 z M 485.75 538.9375 C 464.73018 538.9375 449.5 551.57787 449.5 567.4375 C 449.5 584.89765 465.03047 590.73847 477.0625 594.8125 C 491.269 599.46854 507.78125 603.1109 507.78125 615.1875 C 507.78125 623.77207 499.81067 630.3125 487.34375 630.3125 C 472.99229 630.3125 463.56336 620.99659 461.96875 610.375 L 446.3125 614.59375 C 450.66143 632.3449 464.86908 644.84375 486.46875 644.84375 C 509.08317 644.84375 524.3125 632.04315 524.3125 614.4375 C 524.3125 594.06733 506.18392 588.24979 491.6875 583.59375 C 478.35079 579.22871 465.875 576.18708 465.875 566.875 C 465.875 557.85392 473.994 552.90625 485.15625 552.90625 C 496.02857 552.90625 505.30557 559.30715 507.625 570.65625 L 523 566.4375 C 519.23093 550.14136 504.45039 538.9375 485.75 538.9375 z M 587.65625 538.9375 C 558.51844 538.9375 535.03125 561.20549 535.03125 591.90625 C 535.03125 622.60701 558.51844 644.84375 587.65625 644.84375 C 608.82103 644.84375 626.79086 633.22965 635.34375 615.1875 L 619.25 610.8125 C 613.45143 621.72509 601.28289 628.84375 587.65625 628.84375 C 567.21629 628.84375 551.71875 614.16794 551.71875 591.90625 C 551.71875 569.93557 566.63643 554.78125 587.65625 554.78125 C 599.83325 554.78125 611.14154 560.60492 617.375 570.0625 L 633.75 565.71875 C 624.61725 549.56811 607.51635 538.9375 587.65625 538.9375 z M 940.78125 538.9375 C 911.64344 538.9375 888.15625 561.20549 888.15625 591.90625 C 888.15625 622.60701 911.64344 644.84375 940.78125 644.84375 C 961.94603 644.84375 979.94711 633.22965 988.5 615.1875 L 972.40625 610.8125 C 966.60768 621.72509 954.40789 628.84375 940.78125 628.84375 C 920.34129 628.84375 904.84375 614.16794 904.84375 591.90625 C 904.84375 569.93557 919.76143 554.78125 940.78125 554.78125 C 952.95825 554.78125 964.26654 560.60492 970.5 570.0625 L 986.875 565.71875 C 977.74225 549.56811 960.64135 538.9375 940.78125 538.9375 z M 126.53125 540.96875 L 126.53125 642.8125 L 142.625 642.8125 L 142.625 607.625 L 160.3125 607.625 C 184.2316 607.625 198.71875 595.08792 198.71875 574.28125 C 198.71875 553.47458 184.2316 540.96875 160.3125 540.96875 L 126.53125 540.96875 z M 214.21875 540.96875 L 214.21875 642.8125 L 284.8125 642.8125 L 284.8125 627.6875 L 230.3125 627.6875 L 230.3125 597.28125 L 273.09375 597.28125 L 273.09375 582.59375 L 230.3125 582.59375 L 230.3125 556.09375 L 283.96875 556.09375 L 283.96875 540.96875 L 214.21875 540.96875 z M 308.03125 540.96875 L 308.03125 642.8125 L 324.125 642.8125 L 324.125 573.40625 L 323.8125 569.5 L 325.84375 572.84375 L 378.90625 642.8125 L 394 642.8125 L 394 540.96875 L 377.90625 540.96875 L 377.90625 609.78125 L 378.1875 614 L 376.3125 610.375 L 323.09375 540.96875 L 308.03125 540.96875 z M 650.28125 540.96875 L 650.28125 642.8125 L 666.375 642.8125 L 666.375 540.96875 L 650.28125 540.96875 z M 692.03125 540.96875 L 692.03125 642.8125 L 762.625 642.8125 L 762.625 627.6875 L 708.125 627.6875 L 708.125 597.28125 L 750.875 597.28125 L 750.875 582.59375 L 708.125 582.59375 L 708.125 556.09375 L 761.75 556.09375 L 761.75 540.96875 L 692.03125 540.96875 z M 785.6875 540.96875 L 785.6875 642.8125 L 801.78125 642.8125 L 801.78125 573.40625 L 801.46875 569.5 L 803.5 572.84375 L 856.5625 642.8125 L 871.65625 642.8125 L 871.65625 540.96875 L 855.5625 540.96875 L 855.5625 609.78125 L 855.84375 614 L 853.96875 610.375 L 800.75 540.96875 L 785.6875 540.96875 z M 1003.4062 540.96875 L 1003.4062 642.8125 L 1074 642.8125 L 1074 627.6875 L 1019.5 627.6875 L 1019.5 597.28125 L 1062.2812 597.28125 L 1062.2812 582.59375 L 1019.5 582.59375 L 1019.5 556.09375 L 1073.1562 556.09375 L 1073.1562 540.96875 L 1003.4062 540.96875 z M 56.5 554.78125 C 77.229887 554.78125 92.59375 569.64456 92.59375 591.90625 C 92.59375 613.87693 77.229887 629 56.5 629 C 35.625149 629 20.5625 613.87693 20.5625 591.90625 C 20.5625 569.64456 35.625149 554.78125 56.5 554.78125 z M 142.625 556.09375 L 160 556.09375 C 173.62664 556.09375 182.0625 562.49565 182.0625 574.28125 C 182.0625 585.63035 174.2065 592.46875 160 592.46875 L 142.625 592.46875 L 142.625 556.09375 z "
       transform="matrix(0.8,0,0,-0.8,0,515.88629)"
       id="path3054" /><path
       style="fill:#505050;fill-opacity:1;fill-rule:nonzero;stroke:none"
       d="M 188.375 -762.8125 C 84.07375 -762.8125 0 -683.11624 0 -573.21875 C 0 -463.31625 84.07375 -383.625 188.375 -383.625 C 264.1375 -383.625 328.47875 -425.31625 359.09375 -489.90625 L 301.5 -505.5 C 280.74375 -466.96 237.15 -440.9375 188.375 -440.9375 C 115.20625 -440.9375 59.15625 -493.53625 59.15625 -573.21875 C 59.15625 -651.86124 113.13125 -706.03125 188.375 -706.03125 C 231.96375 -706.03125 272.9525 -685.20125 294.75 -651.34375 L 353.375 -666.96875 C 320.685 -724.78125 259.46375 -762.8125 188.375 -762.8125 z M 540.0625 -762.8125 C 513.91 -762.8125 492.71875 -741.55375 492.71875 -715.3125 C 492.71875 -703.42969 497.07115 -692.57999 504.25 -684.25 C 503.36049 -681.06259 502.875 -677.7166 502.875 -674.25 C 502.875 -653.70488 519.57583 -636.9375 540.0625 -636.9375 C 560.5357 -636.9375 577.21875 -653.703 577.21875 -674.25 C 577.21875 -677.71691 576.76328 -681.06245 575.875 -684.25 C 583.05417 -692.57999 587.40625 -703.42969 587.40625 -715.3125 C 587.40625 -741.55375 566.21 -762.8125 540.0625 -762.8125 z M 904.8125 -761.5625 C 812.7425 -761.5625 745.59375 -716.24125 745.59375 -659.46875 C 745.59375 -595.91876 816.59 -575.61125 869.03125 -561.03125 C 932.33125 -543.84375 1001.375 -534.46875 1001.375 -489.15625 C 1001.375 -457.91125 968.1325 -433.9375 911.21875 -433.9375 C 846.64375 -433.9375 807.61875 -467.795 799.3125 -505.8125 L 731.53125 -490.71875 C 750.725 -427.16875 813.3875 -382.375 908.65625 -382.375 C 1008.4075 -382.375 1075.5625 -428.19625 1075.5625 -491.21875 C 1075.5625 -559.45125 995.6375 -584.98125 931.6875 -601.65625 C 874.14375 -616.24124 817.84375 -627.69125 817.84375 -662.59375 C 817.84375 -691.75875 851.75625 -711.5625 901.625 -711.5625 C 949.59875 -711.5625 991.8026 -688.625 1002.0312 -648 L 1069.8125 -663.125 C 1053.1713 -721.46 987.9425 -761.5625 904.8125 -761.5625 z M 438.25 -721.1875 C 426.13469 -721.1875 413.99813 -716.56063 404.75 -707.28125 C 386.25875 -688.73125 386.26375 -658.6525 404.75 -640.09375 C 413.10626 -631.71094 423.79387 -627.14675 434.71875 -626.34375 L 436.0625 -624.28125 C 437.44002 -622.1655 439.06304 -620.16512 440.90625 -618.3125 L 440.9375 -618.3125 C 448.17264 -611.06238 457.67775 -607.40625 467.1875 -607.40625 C 476.69725 -607.40625 486.17111 -611.06237 493.40625 -618.3125 C 493.41337 -618.325 493.43 -618.3 493.4375 -618.3125 C 507.90029 -632.843 507.91254 -656.46438 493.4375 -671 C 491.57181 -672.87313 489.58745 -674.47588 487.5 -675.84375 L 485.4375 -677.1875 C 484.63966 -688.15635 480.08001 -698.89569 471.71875 -707.28125 C 462.47563 -716.56063 450.36531 -721.1875 438.25 -721.1875 z M 638.40625 -721.1875 C 626.28813 -721.1875 614.18313 -716.56063 604.9375 -707.28125 C 596.59129 -698.90173 592.02455 -688.17551 591.21875 -677.21875 L 589.1875 -675.875 C 587.07595 -674.4955 585.02739 -672.8765 583.15625 -671 C 568.68219 -656.47087 568.67119 -632.81588 583.15625 -618.28125 C 590.4006 -611.01825 599.92061 -607.40625 609.4375 -607.40625 C 618.95439 -607.40625 628.51099 -611.0175 635.75 -618.28125 L 635.75 -618.3125 C 637.62063 -620.19012 639.21654 -622.19375 640.59375 -624.3125 L 641.90625 -626.34375 C 652.82579 -627.14647 663.52518 -631.71513 671.875 -640.09375 C 690.35625 -658.6525 690.36625 -688.72625 671.875 -707.28125 C 662.63437 -716.56063 650.52437 -721.1875 638.40625 -721.1875 z M 540.0625 -704.53125 C 556.73684 -704.52675 570.25 -691.01588 570.25 -674.25 C 570.25 -657.47463 556.7368 -643.9375 540.0625 -643.9375 C 523.37167 -643.9375 509.9375 -657.47275 509.9375 -674.25 C 509.9375 -691.01775 523.37277 -704.53125 540.0625 -704.53125 z M 588.3125 -666.25 C 589.84627 -655.78588 594.4545 -645.70412 602.46875 -637.65625 C 610.48324 -629.62275 620.55025 -625.01063 630.96875 -623.46875 C 630.89681 -623.395 630.85412 -623.29125 630.78125 -623.21875 C 624.87651 -617.29375 617.1428 -614.31237 609.4375 -614.3125 C 601.7322 -614.3125 594.03565 -617.29288 588.125 -623.21875 C 576.31256 -635.0715 576.32156 -654.24538 588.125 -666.09375 C 588.18505 -666.15375 588.252 -666.19 588.3125 -666.25 z M 488.3125 -666.1875 C 488.35937 -666.14125 488.42212 -666.14 488.46875 -666.09375 C 500.28395 -654.22912 500.28167 -635.0675 488.46875 -623.21875 C 482.56656 -617.29462 474.89513 -614.3125 467.1875 -614.3125 C 459.47987 -614.3125 451.77719 -617.29463 445.875 -623.21875 C 445.81475 -623.27913 445.74713 -623.37625 445.6875 -623.4375 C 456.10832 -624.98788 466.18321 -629.62225 474.1875 -637.65625 C 482.1949 -645.69075 486.77159 -655.74287 488.3125 -666.1875 z M 396.78125 -620.75 C 370.63375 -620.75 349.4375 -599.46 349.4375 -573.21875 C 349.4375 -546.97375 370.63375 -525.71875 396.78125 -525.71875 C 408.64823 -525.71875 419.47593 -530.10653 427.78125 -537.34375 C 430.93691 -536.46564 434.25722 -535.97063 437.6875 -535.96875 C 458.16582 -535.96875 474.84375 -552.67676 474.84375 -573.21875 C 474.84375 -593.77085 458.16441 -610.5 437.6875 -610.5 C 434.25708 -610.50002 430.93697 -610.0019 427.78125 -609.125 C 419.47633 -616.36466 408.64648 -620.75 396.78125 -620.75 z M 679.875 -620.75 C 668.01204 -620.75 657.18069 -616.36466 648.875 -609.125 C 645.71093 -610.00779 642.37881 -610.5 638.9375 -610.5 C 618.45422 -610.5 601.8125 -593.75674 601.8125 -573.21875 C 601.8125 -552.6684 618.45367 -535.9575 638.9375 -535.96875 C 642.38909 -535.96875 645.73363 -536.42498 648.90625 -537.3125 C 657.20798 -530.09255 668.02613 -525.71875 679.875 -525.71875 C 706.0225 -525.71875 727.21875 -546.97375 727.21875 -573.21875 C 727.21875 -599.46 706.0225 -620.75 679.875 -620.75 z M 437.6875 -603.5 C 454.36809 -603.5 467.84375 -590.00165 467.84375 -573.21875 C 467.84375 -556.44824 454.36667 -542.96875 437.6875 -542.96875 C 420.99503 -542.97772 407.53125 -556.44699 407.53125 -573.21875 C 407.53125 -590.0029 420.99589 -603.5 437.6875 -603.5 z M 638.9375 -603.5 C 655.62722 -603.5 669.085 -589.98865 669.09375 -573.21875 C 669.08476 -556.43371 655.62895 -542.96875 638.9375 -542.96875 C 622.25383 -542.95978 608.78125 -556.4366 608.78125 -573.21875 C 608.78125 -589.98576 622.25328 -603.5 638.9375 -603.5 z M 467.15625 -539.09375 C 457.64735 -539.09306 448.14079 -535.42039 440.90625 -528.15625 C 439.04162 -526.28453 437.42846 -524.28254 436.0625 -522.1875 L 434.71875 -520.125 C 423.80258 -519.3122 413.09888 -514.7504 404.75 -506.375 C 386.25875 -487.815 386.25875 -457.71625 404.75 -439.15625 C 423.24625 -420.6075 453.2325 -420.6075 471.71875 -439.15625 C 480.07958 -447.54589 484.63938 -458.30492 485.4375 -469.28125 L 487.5 -470.625 C 489.59654 -472.00185 491.55987 -473.64968 493.40625 -475.5 C 493.4135 -475.5075 493.43 -475.4925 493.4375 -475.5 C 507.89161 -490.02044 507.90309 -513.62599 493.4375 -528.15625 C 486.19743 -535.42661 476.66515 -539.09444 467.15625 -539.09375 z M 609.4375 -539.09375 C 599.92884 -539.09375 590.40043 -535.42176 583.15625 -528.15625 C 568.67946 -513.61889 568.67641 -489.98714 583.15625 -475.46875 C 585.01404 -473.6055 587.05825 -471.95637 589.1875 -470.5625 L 591.21875 -469.21875 C 592.03172 -458.26168 596.6029 -447.52864 604.9375 -439.15625 C 623.43875 -420.6025 653.39375 -420.6025 671.875 -439.15625 C 690.36625 -457.71125 690.36625 -487.82 671.875 -506.375 C 663.5249 -514.75615 652.83037 -519.31828 641.90625 -520.125 L 640.5625 -522.1875 C 639.19674 -524.28197 637.61624 -526.2838 635.75 -528.15625 C 628.51403 -535.41975 618.94616 -539.09375 609.4375 -539.09375 z M 467.15625 -532.09375 C 474.87268 -532.09431 482.56507 -529.14714 488.46875 -523.21875 C 500.27591 -511.3588 500.27286 -492.24518 488.46875 -480.40625 C 488.42175 -480.35925 488.35975 -480.35925 488.3125 -480.3125 C 486.76677 -490.74989 482.187 -500.81668 474.1875 -508.84375 C 466.17632 -516.88471 456.10941 -521.49199 445.6875 -523.03125 C 445.74625 -523.09129 445.81562 -523.15925 445.875 -523.21875 C 451.78046 -529.14836 459.43983 -532.09319 467.15625 -532.09375 z M 609.4375 -532.09375 C 617.15289 -532.09375 624.87347 -529.149 630.78125 -523.21875 C 630.84075 -523.15899 630.8785 -523.0915 630.9375 -523.03125 C 620.52643 -521.4868 610.47761 -516.87371 602.46875 -508.84375 C 594.46199 -500.80504 589.85057 -490.70849 588.3125 -480.25 C 588.25176 -480.31 588.18538 -480.34563 588.125 -480.40625 C 576.31734 -492.24536 576.31429 -511.35861 588.125 -523.21875 C 594.03582 -529.14699 601.72211 -532.09375 609.4375 -532.09375 z M 538.3125 -509.53125 C 517.82354 -509.53125 501.1875 -492.78225 501.1875 -472.25 C 501.1875 -464.88378 503.33999 -458.01383 507.03125 -452.21875 C 501.31577 -444.99787 497.875 -435.86928 497.875 -425.9375 C 497.875 -402.57375 516.77625 -383.625 540.0625 -383.625 C 563.33875 -383.625 582.1875 -402.57375 582.1875 -425.9375 C 582.1875 -437.00422 577.95123 -447.08184 571.03125 -454.625 C 573.85331 -459.88076 575.46875 -465.88126 575.46875 -472.25 C 575.46875 -492.7846 558.78463 -509.53125 538.3125 -509.53125 z M 538.3125 -502.53125 C 554.99038 -502.53125 568.46875 -489.0104 568.46875 -472.25 C 568.46875 -455.48409 554.98315 -441.9375 538.3125 -441.9375 C 521.62009 -441.9375 508.15625 -455.47211 508.15625 -472.25 C 508.15625 -489.01275 521.61396 -502.53125 538.3125 -502.53125 z M 286.21875 -321.28125 C 271.23359 -321.28125 259.15625 -309.85146 259.15625 -294.0625 C 259.15625 -278.27354 271.23359 -266.8125 286.21875 -266.8125 C 297.10349 -266.8125 306.35138 -272.81492 310.75 -282.09375 L 302.46875 -284.3125 C 299.48663 -278.70031 293.22674 -275.0625 286.21875 -275.0625 C 275.70677 -275.0625 267.71875 -282.61362 267.71875 -294.0625 C 267.71875 -305.36171 275.40856 -313.125 286.21875 -313.125 C 292.4812 -313.125 298.29423 -310.14515 301.5 -305.28125 L 309.90625 -307.53125 C 305.20941 -315.83729 296.43253 -321.28125 286.21875 -321.28125 z M 732.46875 -321.28125 C 717.48359 -321.28125 705.40625 -309.85146 705.40625 -294.0625 C 705.40625 -278.27354 717.48359 -266.8125 732.46875 -266.8125 C 747.45391 -266.8125 759.625 -278.27354 759.625 -294.0625 C 759.625 -309.85146 747.45391 -321.28125 732.46875 -321.28125 z M 328.78125 -320.25 L 328.78125 -267.875 L 365.09375 -267.875 L 365.09375 -275.65625 L 337.0625 -275.65625 L 337.0625 -291.28125 L 359.03125 -291.28125 L 359.03125 -298.84375 L 337.0625 -298.84375 L 337.0625 -312.46875 L 364.625 -312.46875 L 364.625 -320.25 L 328.78125 -320.25 z M 387.375 -320.25 L 387.375 -267.875 L 395.65625 -267.875 L 395.65625 -303.5625 L 395.5 -305.59375 L 396.53125 -303.84375 L 423.84375 -267.875 L 431.59375 -267.875 L 431.59375 -320.25 L 423.3125 -320.25 L 423.3125 -284.84375 L 423.46875 -282.6875 L 422.5 -284.5625 L 395.125 -320.25 L 387.375 -320.25 z M 449.25 -320.25 L 449.25 -312.46875 L 466.03125 -312.46875 L 466.03125 -267.875 L 474.3125 -267.875 L 474.3125 -312.46875 L 491.21875 -312.46875 L 491.21875 -320.25 L 449.25 -320.25 z M 509.5625 -320.25 L 509.5625 -267.875 L 545.875 -267.875 L 545.875 -275.65625 L 517.84375 -275.65625 L 517.84375 -291.28125 L 539.84375 -291.28125 L 539.84375 -298.84375 L 517.84375 -298.84375 L 517.84375 -312.46875 L 545.4375 -312.46875 L 545.4375 -320.25 L 509.5625 -320.25 z M 567.65625 -320.25 L 567.65625 -267.875 L 575.90625 -267.875 L 575.90625 -286.5625 L 584.71875 -286.5625 L 586.125 -286.5625 L 597.6875 -267.875 L 606.9375 -267.875 L 594.34375 -288.15625 C 600.97897 -290.70044 604.78125 -296.07299 604.78125 -303.40625 C 604.78125 -313.73267 597.24366 -320.25 584.71875 -320.25 L 567.65625 -320.25 z M 655.46875 -320.25 L 655.46875 -267.875 L 663.75 -267.875 L 663.75 -289.78125 L 685 -289.78125 L 685 -297.28125 L 663.75 -297.28125 L 663.75 -312.46875 L 690.59375 -312.46875 L 690.59375 -320.25 L 655.46875 -320.25 z M 778.84375 -320.25 L 778.84375 -267.875 L 787.125 -267.875 L 787.125 -286.5625 L 795.9375 -286.5625 L 797.34375 -286.5625 L 808.90625 -267.875 L 818.15625 -267.875 L 805.53125 -288.15625 C 812.16647 -290.70044 815.96875 -296.07299 815.96875 -303.40625 C 815.96875 -313.73267 808.46241 -320.25 795.9375 -320.25 L 778.84375 -320.25 z M 732.46875 -313.125 C 743.12982 -313.125 751.03125 -305.51137 751.03125 -294.0625 C 751.03125 -282.76329 743.12982 -274.96875 732.46875 -274.96875 C 721.73311 -274.96875 714 -282.76329 714 -294.0625 C 714 -305.51137 721.73311 -313.125 732.46875 -313.125 z M 575.90625 -312.46875 L 585.6875 -312.46875 C 592.54638 -312.46875 596.1875 -308.79395 596.1875 -303.40625 C 596.1875 -298.24304 592.77004 -294.34375 585.6875 -294.34375 L 575.90625 -294.34375 L 575.90625 -312.46875 z M 787.125 -312.46875 L 796.90625 -312.46875 C 803.76513 -312.46875 807.40625 -308.79395 807.40625 -303.40625 C 807.40625 -298.24304 803.98879 -294.34375 796.90625 -294.34375 L 787.125 -294.34375 L 787.125 -312.46875 z M 3.1875 -296.6875 L 3.1875 -293.4375 L 167.0625 -293.4375 L 167.0625 -296.6875 L 3.1875 -296.6875 z M 910.71875 -296.6875 L 910.71875 -293.4375 L 1074.5938 -293.4375 L 1074.5938 -296.6875 L 910.71875 -296.6875 z M 56.5 -223.875 C 27.362188 -223.875 3.875 -201.60701 3.875 -170.90625 C 3.875 -140.20549 27.362188 -117.96875 56.5 -117.96875 C 85.637812 -117.96875 109.28125 -140.20549 109.28125 -170.90625 C 109.28125 -201.60701 85.637812 -223.875 56.5 -223.875 z M 485.75 -223.875 C 464.73018 -223.875 449.5 -211.23462 449.5 -195.375 C 449.5 -177.91485 465.03047 -172.07403 477.0625 -168 C 491.269 -163.34396 507.78125 -159.7016 507.78125 -147.625 C 507.78125 -139.04043 499.81067 -132.5 487.34375 -132.5 C 472.99229 -132.5 463.56336 -141.81591 461.96875 -152.4375 L 446.3125 -148.21875 C 450.66142 -130.4676 464.86908 -117.96875 486.46875 -117.96875 C 509.08318 -117.96875 524.3125 -130.76935 524.3125 -148.375 C 524.3125 -168.74518 506.18393 -174.56271 491.6875 -179.21875 C 478.35079 -183.58379 465.875 -186.62543 465.875 -195.9375 C 465.875 -204.95857 473.994 -209.90625 485.15625 -209.90625 C 496.02857 -209.90625 505.30557 -203.50535 507.625 -192.15625 L 523 -196.375 C 519.23092 -212.67114 504.45039 -223.875 485.75 -223.875 z M 587.65625 -223.875 C 558.51844 -223.875 535.03125 -201.60701 535.03125 -170.90625 C 535.03125 -140.20549 558.51844 -117.96875 587.65625 -117.96875 C 608.82102 -117.96875 626.79086 -129.58285 635.34375 -147.625 L 619.25 -152 C 613.45142 -141.08741 601.28289 -133.96875 587.65625 -133.96875 C 567.21629 -133.96875 551.71875 -148.64456 551.71875 -170.90625 C 551.71875 -192.87693 566.63643 -208.03125 587.65625 -208.03125 C 599.83325 -208.03125 611.14154 -202.20757 617.375 -192.75 L 633.75 -197.09375 C 624.61725 -213.24439 607.51635 -223.875 587.65625 -223.875 z M 940.78125 -223.875 C 911.64344 -223.875 888.15625 -201.60701 888.15625 -170.90625 C 888.15625 -140.20549 911.64344 -117.96875 940.78125 -117.96875 C 961.94602 -117.96875 979.94711 -129.58285 988.5 -147.625 L 972.40625 -152 C 966.60767 -141.08741 954.40789 -133.96875 940.78125 -133.96875 C 920.34129 -133.96875 904.84375 -148.64456 904.84375 -170.90625 C 904.84375 -192.87693 919.76142 -208.03125 940.78125 -208.03125 C 952.95825 -208.03125 964.26654 -202.20757 970.5 -192.75 L 986.875 -197.09375 C 977.74225 -213.24439 960.64135 -223.875 940.78125 -223.875 z M 126.53125 -221.84375 L 126.53125 -120 L 142.625 -120 L 142.625 -155.1875 L 160.3125 -155.1875 C 184.2316 -155.1875 198.71875 -167.72458 198.71875 -188.53125 C 198.71875 -209.33793 184.2316 -221.84375 160.3125 -221.84375 L 126.53125 -221.84375 z M 214.21875 -221.84375 L 214.21875 -120 L 284.8125 -120 L 284.8125 -135.125 L 230.3125 -135.125 L 230.3125 -165.53125 L 273.09375 -165.53125 L 273.09375 -180.21875 L 230.3125 -180.21875 L 230.3125 -206.71875 L 283.96875 -206.71875 L 283.96875 -221.84375 L 214.21875 -221.84375 z M 308.03125 -221.84375 L 308.03125 -120 L 324.125 -120 L 324.125 -189.40625 L 323.8125 -193.3125 L 325.84375 -189.96875 L 378.90625 -120 L 394 -120 L 394 -221.84375 L 377.90625 -221.84375 L 377.90625 -153.03125 L 378.1875 -148.8125 L 376.3125 -152.4375 L 323.09375 -221.84375 L 308.03125 -221.84375 z M 650.28125 -221.84375 L 650.28125 -120 L 666.375 -120 L 666.375 -221.84375 L 650.28125 -221.84375 z M 692.03125 -221.84375 L 692.03125 -120 L 762.625 -120 L 762.625 -135.125 L 708.125 -135.125 L 708.125 -165.53125 L 750.875 -165.53125 L 750.875 -180.21875 L 708.125 -180.21875 L 708.125 -206.71875 L 761.75 -206.71875 L 761.75 -221.84375 L 692.03125 -221.84375 z M 785.6875 -221.84375 L 785.6875 -120 L 801.78125 -120 L 801.78125 -189.40625 L 801.46875 -193.3125 L 803.5 -189.96875 L 856.5625 -120 L 871.65625 -120 L 871.65625 -221.84375 L 855.5625 -221.84375 L 855.5625 -153.03125 L 855.84375 -148.8125 L 853.96875 -152.4375 L 800.75 -221.84375 L 785.6875 -221.84375 z M 1003.4062 -221.84375 L 1003.4062 -120 L 1074 -120 L 1074 -135.125 L 1019.5 -135.125 L 1019.5 -165.53125 L 1062.2812 -165.53125 L 1062.2812 -180.21875 L 1019.5 -180.21875 L 1019.5 -206.71875 L 1073.1562 -206.71875 L 1073.1562 -221.84375 L 1003.4062 -221.84375 z M 56.5 -208.03125 C 77.229888 -208.03125 92.59375 -193.16794 92.59375 -170.90625 C 92.59375 -148.93557 77.229888 -133.8125 56.5 -133.8125 C 35.625149 -133.8125 20.5625 -148.93558 20.5625 -170.90625 C 20.5625 -193.16794 35.625149 -208.03125 56.5 -208.03125 z M 142.625 -206.71875 L 160 -206.71875 C 173.62664 -206.71875 182.0625 -200.31685 182.0625 -188.53125 C 182.0625 -177.18215 174.2065 -170.34375 160 -170.34375 L 142.625 -170.34375 L 142.625 -206.71875 z "
       transform="matrix(0.8,0,0,-0.8,0,515.88629)"
       id="path3968" /></g></svg>